<svg width="40" height="40" viewBox="0 0 40 40" fill="none" xmlns="http://www.w3.org/2000/svg">
<path d="M21.1662 40L15.2385 36.635V0C15.2385 0 28.1223 2.8675 29.8957 9.9675C31.669 17.0725 28.9052 21.6725 27.9338 21.8075C25.229 22.1825 24.2004 19.9375 24.2004 19.9375V8.475L21.2595 6.855L21.1662 40ZM22.8576 35.8V40C22.8576 40 37.4595 34.155 39.6081 31.9C41.7566 29.65 34.5776 24.045 30.7204 25.14C30.7204 25.14 26.6214 25.3875 22.9071 27.3925C22.8709 27.4125 22.9071 31.1675 22.9071 31.1675L32.3319 28.43L35.6519 30.255L22.8576 35.8ZM13.2881 33.8675C13.2881 33.8675 11.4938 35.0575 7.49568 34.9975C3.49568 34.9375 -0.0452765 33.51 0.000437805 30.415C0.0461521 27.32 6.62139 23.9275 13.2423 22.5V26.845L6.20806 29.225C6.20806 29.225 5.00425 31.19 6.62139 31.25C8.88947 31.3134 11.152 30.9308 13.3338 30.115L13.2881 33.865V33.8675Z" fill="white"/>
</svg>
