<svg width="40" height="40" viewBox="0 0 40 40" fill="none" xmlns="http://www.w3.org/2000/svg">
<path d="M8.65122 3.3925L8.59622 3.4425C8.71122 3.3225 8.87122 3.1925 8.98122 3.1225C12.1112 1.0875 15.7312 0 19.7412 0C23.4962 0 27.0112 1.0375 30.0162 2.84C30.2312 2.97 30.8262 3.3775 31.1312 3.7475C28.2412 0.555 19.7237 7.405 19.7237 7.405C16.7812 5.135 14.0737 3.59 12.0562 3.04C10.3712 2.5775 9.20622 2.965 8.65122 3.3925ZM34.4137 6.4125C34.3262 6.3125 34.2287 6.2225 34.1412 6.1225C33.4087 5.3175 32.5087 5.1225 31.6962 5.1775C30.9587 5.4075 27.5462 6.6375 23.3412 10.6075C23.3412 10.6075 28.0762 15.21 30.9737 19.915C33.8712 24.6225 35.6037 28.32 34.5387 33.4525C37.8928 29.7749 39.7487 24.9749 39.7412 19.9975C39.7483 14.9587 37.843 10.1044 34.4137 6.4125ZM27.1912 21.925C25.3458 19.8642 23.4392 17.8591 21.4737 15.9125C20.8957 15.3354 20.3123 14.7637 19.7237 14.1975L17.6037 16.3325C16.0687 17.8825 14.0762 19.9075 12.9712 21.0875C11.0037 23.1875 5.36372 29.785 5.04622 33.4825C5.04622 33.4825 3.79122 30.5475 6.54622 23.7825C8.34622 19.36 13.7787 12.72 16.0487 10.5575C16.0487 10.5575 13.9737 8.275 11.3737 6.6975L11.3562 6.6925C11.3562 6.6925 11.3287 6.67 11.2812 6.6425C10.0312 5.8925 8.66372 5.3175 7.34872 5.2425C6.51074 5.32411 5.73082 5.70696 5.15372 6.32C1.62565 10.2286 -0.218766 15.3707 0.0207178 20.6307C0.260201 25.8906 2.56426 30.8439 6.43291 34.4157C10.3016 37.9875 15.4227 39.8896 20.685 39.7093C25.9473 39.529 30.9262 37.2807 34.5412 33.4525C34.5412 33.4475 34.1187 30.8125 31.4287 27.0275C30.7962 26.1425 28.4837 23.3775 27.1887 21.9275L27.1912 21.925Z" fill="white"/>
</svg>
